HIERARCHY
ROOT Hips
{
  OFFSET 0 0.240689 0
  CHANNELS 6 Xposition Yposition Zposition Zrotation Xrotation Yrotation
  JOINT Bip01_Spine0
  {
    OFFSET 0 -24.7459 49.7988
    CHANNELS 6 Xposition Yposition Zposition Zrotation Xrotation Yrotation
    JOINT Bip01_Pelvis
    {
      OFFSET 0 0 0
      CHANNELS 6 Xposition Yposition Zposition Zrotation Xrotation Yrotation
      JOINT Bip01_Spine0_Tail
      {
        OFFSET -6.47486 -3.86022 0
        CHANNELS 6 Xposition Yposition Zposition Zrotation Xrotation Yrotation
        JOINT Bip01_Spine0_Tail1
        {
          OFFSET 10.3837 -0.00825882 0
          CHANNELS 6 Xposition Yposition Zposition Zrotation Xrotation Yrotation
          JOINT Bip01_Spine0_Tail2
          {
            OFFSET 10.3837 -0.00826263 0
            CHANNELS 6 Xposition Yposition Zposition Zrotation Xrotation Yrotation
            JOINT Bip01_Spine0_Tail3
            {
              OFFSET 10.3837 -0.00825882 0
              CHANNELS 6 Xposition Yposition Zposition Zrotation Xrotation Yrotation
              JOINT Bip01_Spine0_Tail4
              {
                OFFSET 10.3837 -0.00826263 0
                CHANNELS 6 Xposition Yposition Zposition Zrotation Xrotation Yrotation
                End Site
                {
                  OFFSET 0 0 0
                }
              }
            }
          }
        }
      }
      JOINT Bip01_R_Thigh
      {
        OFFSET 0 -1.52588e-005 -8.75617
        CHANNELS 6 Xposition Yposition Zposition Zrotation Xrotation Yrotation
        JOINT Bip01_R_Calf
        {
          OFFSET 19.7638 0 0
          CHANNELS 6 Xposition Yposition Zposition Zrotation Xrotation Yrotation
          JOINT Bip01_R_Foot
          {
            OFFSET 18.6534 0 0
            CHANNELS 6 Xposition Yposition Zposition Zrotation Xrotation Yrotation
            JOINT Bip01_R_Toe0
            {
              OFFSET 5.09145 13.9567 0
              CHANNELS 6 Xposition Yposition Zposition Zrotation Xrotation Yrotation
              JOINT Bip01_R_Toe01
              {
                OFFSET 4.28803 0 0
                CHANNELS 6 Xposition Yposition Zposition Zrotation Xrotation Yrotation
                JOINT Bip01_R_Toe02
                {
                  OFFSET 3.85801 0 0
                  CHANNELS 6 Xposition Yposition Zposition Zrotation Xrotation Yrotation
                  End Site
                  {
                    OFFSET 0 0 0
                  }
                }
              }
            }
          }
        }
      }
      JOINT Bip01_L_Thigh
      {
        OFFSET 0 1.52588e-005 8.75617
        CHANNELS 6 Xposition Yposition Zposition Zrotation Xrotation Yrotation
        JOINT Bip01_L_Calf
        {
          OFFSET 19.7638 0 0
          CHANNELS 6 Xposition Yposition Zposition Zrotation Xrotation Yrotation
          JOINT Bip01_L_Foot
          {
            OFFSET 18.6534 0 0
            CHANNELS 6 Xposition Yposition Zposition Zrotation Xrotation Yrotation
            JOINT Bip01_L_Toe0
            {
              OFFSET 5.09144 13.9567 0
              CHANNELS 6 Xposition Yposition Zposition Zrotation Xrotation Yrotation
              JOINT Bip01_L_Toe01
              {
                OFFSET 4.28802 0 0
                CHANNELS 6 Xposition Yposition Zposition Zrotation Xrotation Yrotation
                JOINT Bip01_L_Toe02
                {
                  OFFSET 3.85801 0 0
                  CHANNELS 6 Xposition Yposition Zposition Zrotation Xrotation Yrotation
                  End Site
                  {
                    OFFSET 0 0 0
                  }
                }
              }
            }
          }
        }
      }
      JOINT Bip01_Spine
      {
        OFFSET 9.14835 -0.00640869 -1.1e-005
        CHANNELS 6 Xposition Yposition Zposition Zrotation Xrotation Yrotation
        JOINT Bip01_Spine1
        {
          OFFSET 8.04366 -0.00638199 0
          CHANNELS 6 Xposition Yposition Zposition Zrotation Xrotation Yrotation
          JOINT Bip01_Spine2
          {
            OFFSET 8.04367 -0.00639343 0
            CHANNELS 6 Xposition Yposition Zposition Zrotation Xrotation Yrotation
            JOINT Bip01_Spine3
            {
              OFFSET 8.04304 -0.00831222 0
              CHANNELS 6 Xposition Yposition Zposition Zrotation Xrotation Yrotation
              JOINT Bip01_Neck
              {
                OFFSET 10.6685 1.06813 0
                CHANNELS 6 Xposition Yposition Zposition Zrotation Xrotation Yrotation
                JOINT Bip01_R_Clavicle
                {
                  OFFSET -3.21661 -4.89635 -9.04802
                  CHANNELS 6 Xposition Yposition Zposition Zrotation Xrotation Yrotation
                  JOINT Bip01_R_UpperArm
                  {
                    OFFSET 19.0492 0 0
                    CHANNELS 6 Xposition Yposition Zposition Zrotation Xrotation Yrotation
                    JOINT Bip01_R_Forearm
                    {
                      OFFSET 10.3706 0 0
                      CHANNELS 6 Xposition Yposition Zposition Zrotation Xrotation Yrotation
                      JOINT Bip01_R_Hand
                      {
                        OFFSET 22.8632 0 0
                        CHANNELS 6 Xposition Yposition Zposition Zrotation Xrotation Yrotation
                        JOINT Bip01_R_Finger0
                        {
                          OFFSET 6.48259 0.103651 0.504496
                          CHANNELS 6 Xposition Yposition Zposition Zrotation Xrotation Yrotation
                          JOINT Bip01_R_Finger01
                          {
                            OFFSET 3.66847 0 0
                            CHANNELS 6 Xposition Yposition Zposition Zrotation Xrotation Yrotation
                            End Site
                            {
                              OFFSET 0 0 0
                            }
                          }
                        }
                      }
                    }
                  }
                }
                JOINT Bip01_L_Clavicle
                {
                  OFFSET -3.21661 -4.89641 9.04797
                  CHANNELS 6 Xposition Yposition Zposition Zrotation Xrotation Yrotation
                  JOINT Bip01_L_UpperArm
                  {
                    OFFSET 19.0492 0 0
                    CHANNELS 6 Xposition Yposition Zposition Zrotation Xrotation Yrotation
                    JOINT Bip01_L_Forearm
                    {
                      OFFSET 10.3706 0 0
                      CHANNELS 6 Xposition Yposition Zposition Zrotation Xrotation Yrotation
                      JOINT Bip01_L_Hand
                      {
                        OFFSET 22.8631 0 0
                        CHANNELS 6 Xposition Yposition Zposition Zrotation Xrotation Yrotation
                        JOINT Bip01_L_Finger0
                        {
                          OFFSET 6.48257 0.103655 -0.504492
                          CHANNELS 6 Xposition Yposition Zposition Zrotation Xrotation Yrotation
                          JOINT Bip01_L_Finger01
                          {
                            OFFSET 3.66844 0 0
                            CHANNELS 6 Xposition Yposition Zposition Zrotation Xrotation Yrotation
                            End Site
                            {
                              OFFSET 0 0 0
                            }
                          }
                        }
                      }
                    }
                  }
                }
                JOINT Bip01_Neck1
                {
                  OFFSET 7.52459 -0.00656509 0
                  CHANNELS 6 Xposition Yposition Zposition Zrotation Xrotation Yrotation
                  JOINT Bip01_Neck2
                  {
                    OFFSET 8.4783 -0.00588226 0
                    CHANNELS 6 Xposition Yposition Zposition Zrotation Xrotation Yrotation
                    JOINT Bip01_Head
                    {
                      OFFSET 8.41606 0 0
                      CHANNELS 6 Xposition Yposition Zposition Zrotation Xrotation Yrotation
                      JOINT EyesBlue
                      {
                        OFFSET 0 0 0
                        CHANNELS 6 Xposition Yposition Zposition Zrotation Xrotation Yrotation
                        JOINT EyesBlue_2
                        {
                          OFFSET 0 -0.500007 0
                          CHANNELS 6 Xposition Yposition Zposition Zrotation Xrotation Yrotation
                          End Site
                          {
                            OFFSET 0 0 0
                          }
                        }
                      }
                      JOINT Bip01_Head2_Eyeleds
                      {
                        OFFSET 6.52751 7.61746 2.2e-005
                        CHANNELS 6 Xposition Yposition Zposition Zrotation Xrotation Yrotation
                        End Site
                        {
                          OFFSET 0 0 0
                        }
                      }
                      JOINT Bip01_Head_Muzzle
                      {
                        OFFSET 2.88628 13.9448 3.88994
                        CHANNELS 6 Xposition Yposition Zposition Zrotation Xrotation Yrotation
                        End Site
                        {
                          OFFSET 0 0 0
                        }
                      }
                      JOINT Bip01_Head1_Jaw
                      {
                        OFFSET 0.271065 1.32405 0
                        CHANNELS 6 Xposition Yposition Zposition Zrotation Xrotation Yrotation
                        JOINT _Bip01_Head11_TungeControler
                        {
                          OFFSET 4.61616 5.82872 0
                          CHANNELS 6 Xposition Yposition Zposition Zrotation Xrotation Yrotation
                          JOINT _Bip01_Ponytail3_tunge
                          {
                            OFFSET 5.17785 2.98805 0
                            CHANNELS 6 Xposition Yposition Zposition Zrotation Xrotation Yrotation
                            JOINT Bip01_Ponytail31
                            {
                              OFFSET 5.57569 0 0
                              CHANNELS 6 Xposition Yposition Zposition Zrotation Xrotation Yrotation
                              JOINT Bip01_Ponytail32
                              {
                                OFFSET 2.93165 0 0
                                CHANNELS 6 Xposition Yposition Zposition Zrotation Xrotation Yrotation
                                JOINT Bip01_Ponytail3Nub
                                {
                                  OFFSET 3.30155 0 0
                                  CHANNELS 6 Xposition Yposition Zposition Zrotation Xrotation Yrotation
                                  End Site
                                  {
                                    OFFSET 0 0 0
                                  }
                                }
                              }
                            }
                          }
                        }
                        JOINT Bip01_Head_JawNub
                        {
                          OFFSET 15.5776 -0.000389099 0
                          CHANNELS 6 Xposition Yposition Zposition Zrotation Xrotation Yrotation
                          End Site
                          {
                            OFFSET 0 0 0
                          }
                        }
                      }
                      JOINT Bip01_Ponytail2
                      {
                        OFFSET 9.40334 1.03973 -6.51764
                        CHANNELS 6 Xposition Yposition Zposition Zrotation Xrotation Yrotation
                        JOINT Bip01_Ponytail21
                        {
                          OFFSET 2.77018 -0.00640106 1.33514e-005
                          CHANNELS 6 Xposition Yposition Zposition Zrotation Xrotation Yrotation
                          End Site
                          {
                            OFFSET 0 0 0
                          }
                        }
                      }
                      JOINT Bip01_Ponytail1
                      {
                        OFFSET 9.40368 1.03969 6.51768
                        CHANNELS 6 Xposition Yposition Zposition Zrotation Xrotation Yrotation
                        JOINT Bip01_Ponytail11
                        {
                          OFFSET 2.77018 -0.00640487 0
                          CHANNELS 6 Xposition Yposition Zposition Zrotation Xrotation Yrotation
                          End Site
                          {
                            OFFSET 0 0 0
                          }
                        }
                      }
                    }
                  }
                }
              }
            }
          }
        }
      }
    }
  }
}
MOTION
Frames:	4
Frame Time:	0.0333333
0 0 0.240689 -0 -90 -0 0.000866 -28.7007 47.1508 90.0001 -0.000160451 84.4627 0 0 0 -89.9997 -0.000253896 -78.4999 -6.34544 -3.85967 -1.29106 145.009 -6.66354 -2.10066 10.3821 -0.008041 5.09998e-005 -7.6639 0.00588396 6.50202 10.3832 -0.008117 0.000131 -1.11844 0.0054171 6.00032 10.3869 -0.007484 0.000128999 25.2046 0.0365315 9.15659 10.3867 -0.007453 -0.000471001 23.7244 4.0875 3.72929 7e-006 -1.1e-005 -8.75617 -84.6834 11.6246 -176.431 19.7638 -1e-006 7.99361e-015 -66.7045 0.000224302 0.0010889 18.6534 7.10543e-015 0 -33.0601 2.86514 5.66948 5.09144 13.9567 -1.3653e-006 111.546 1.08245 -4.88255 4.288 3e-006 -3.01981e-014 57.5008 0.000335719 9.85495e-005 3.85799 -2.13163e-014 -1.77636e-015 -2.49974 0.000642461 0.000671041 -1.3e-005 7e-006 8.75617 -126.195 13.1182 -178.805 19.7638 -2e-006 -7.99361e-015 -77.2166 0.000380793 0.00340629 18.6534 -2.84217e-014 -2e-006 -13.4435 -8.34948 -0.489484 5.09144 13.9567 -2.43886e-007 100.039 -0.90959 4.91623 4.288 -1e-006 8.88179e-015 51.4989 0.000747362 0.000263245 3.85799 1.95399e-014 -3.55271e-015 -44.9981 0.0012887 0.00310426 8.96483 -0.006275 1.82405 2.54383 -0.132427 -2.99541 8.04383 -0.006286 0.000102 2.47714 -0.353111 -7.99196 8.04378 -0.006401 -2.10074e-005 0.980983 0.192594 -4.49589 8.04404 -0.008224 0.000128003 2.65592 -0.721164 -5.45194 10.6688 1.06807 -9.11735e-005 -10.74 0.889957 0.181085 -3.4025 -4.88894 -8.98378 -169.178 -84.5101 129.129 19.0492 1e-006 -3e-006 90.9173 -9.01534 -108.553 10.3706 -1e-006 1e-006 -56.8419 0.00133022 0.00446188 22.8631 -3.55271e-015 4.44089e-015 -15.5914 7.47024 0.175396 6.48256 0.103652 0.504496 -87.0296 2.11035 -15.3564 3.66845 9.99999e-007 -6.03073e-013 40.1079 0.00108074 0.00054036 -3.4596 -4.60781 9.10985 -169.502 86.3254 -104.804 19.0492 -8.17124e-014 3e-006 88.0244 -43.975 101.279 10.3706 -2e-006 -3.55271e-015 -104.265 -0.000123423 0.00116609 22.8631 -5e-006 -9.99999e-007 24.9017 -11.8523 -2.88657 6.48255 0.103653 -0.504496 55.2477 11.164 -10.8235 3.66844 -3e-006 -1.35891e-013 25.6086 1.11639e-005 -5.37933e-006 7.5272 -0.006637 -0.000310001 9.74677 2.82001 16.1573 8.47671 -0.006446 0.000283999 15.3859 -1.64307 1.18197 8.41604 0 -3.55271e-015 -92.1911 6.78907 -3.268 -3e-006 5e-006 -3e-006 -23.1098 1.37701e-015 90 8.73445e-008 -0.500004 4.29325e-006 106.828 90 -16.8276 0 0 0 -113.549 -7.01671e-015 -180 2.8863 13.9448 3.88993 -22.989 1.37021e-015 90 0 0 0 -85.3358 -1.52588e-005 -180 0 0 0 -120.289 3.62693e-006 -2.28706e-005 0 0 0 133.74 -8.77929e-006 6.09071e-006 0 0 0 1.83152 3.1541e-006 2.98552e-007 0 0 0 -17.65 -8.89689e-006 -3.78716e-006 0 0 0 -26.1943 -1.14261e-006 -1.32677e-006 15.5776 -0.000396 -6.99998e-006 1.27222e-014 5.82377e-019 3.10601e-018 9.40361 1.03979 -6.51604 -5.81408 -20.0444 20.1782 2.77011 -0.005981 0.002195 2.27114 -18.4986 -0.509807 9.40406 1.0397 6.51626 -5.81533 20.0463 -20.1753 2.77011 -0.006031 -0.002048 2.27121 18.5003 0.513248 
0 0 0.240689 -0 -90 -0 0.000866 -28.7007 47.5698 90 9.01911e-005 85.6383 0 0 0 -89.9999 -0.000105998 -79.7792 -6.37232 -3.85967 -1.149 143.728 -6.07949 -3.24742 10.3821 -0.008041 5.09998e-005 -8.64498 -0.112711 4.64438 10.3832 -0.008117 0.000131 1.6382 0.413743 4.59828 10.3869 -0.007484 0.000129 27.1895 -0.228112 8.90902 10.3867 -0.007453 -0.000471002 25.2745 2.82632 3.86885 7e-006 -1.1e-005 -8.75617 -89.0299 10.0752 -175.808 19.7638 -1e-006 7.10543e-015 -73.7036 0.000154196 0.00108931 18.6534 7.10543e-015 8.88178e-016 -30.0326 2.64795 5.61598 5.09144 13.9567 -1.10389e-006 109.296 1.2546 -4.84972 4.288 3e-006 -2.84217e-014 54.4969 0.000330996 0.000116023 3.85799 -3.55271e-015 0 -3.30703 0.000632749 0.000679982 -1.3e-005 7e-006 8.75617 -124.908 12.2332 -179.669 19.7638 -2e-006 -9.76996e-015 -76.6749 0.000397376 0.00340615 18.6534 -3.55271e-014 -2e-006 -14.2753 -8.16691 -0.565875 5.09144 13.9567 -2.771e-007 102.238 -0.961627 4.85641 4.288 -1e-006 3.55271e-015 51.5738 0.000747622 0.000262186 3.85799 1.33227e-015 0 -44.4758 0.0013169 0.00309249 9.00312 -0.006275 1.62329 2.54425 -0.121252 -2.74403 8.04383 -0.006286 0.000102 1.77894 -0.224606 -7.02996 8.04378 -0.006401 -2.10154e-005 0.685987 0.177418 -3.94697 8.04404 -0.008224 0.000128002 2.23229 -0.614384 -4.79513 10.6688 1.06807 -9.11594e-005 -10.7397 0.771471 0.156979 -3.40621 -4.87054 -8.99242 -169.192 -84.6287 126.95 19.0492 1e-006 -3e-006 89.2172 -8.26305 -107.885 10.3706 -1e-006 1e-006 -55.8359 0.00137624 0.00446 22.8631 -1.59872e-014 -1.77636e-015 -18.2032 8.37595 0.433688 6.48256 0.103652 0.504496 -86.2267 1.89084 -15.3842 3.66845 9.99999e-007 -6.37268e-013 39.3003 0.00107118 0.000556838 -3.45577 -4.62638 9.10178 -169.455 86.2053 -110.681 19.0492 -5.68434e-014 3e-006 88.9607 -40.4726 103.009 10.3706 -2e-006 -2.70894e-014 -99.7557 -8.67178e-005 0.00116466 22.8631 -5e-006 -9.99999e-007 25.408 -11.5847 -2.83398 6.48255 0.103653 -0.504496 49.1926 12.2328 -9.59463 3.66844 -3e-006 -1.33227e-013 26.3977 1.19735e-005 -2.40222e-006 7.5272 -0.006637 -0.000310001 10.4094 2.56384 14.0444 8.47671 -0.006446 0.000283999 14.6734 -1.44409 1.02519 8.41604 -2.13163e-014 2.66454e-015 -92.0396 5.85406 -2.77538 -3e-006 5e-006 -3e-006 -23.1098 1.37701e-015 90 8.59946e-008 -0.500004 4.29515e-006 105.317 90 -15.3167 0 0 0 -113.249 7.01671e-015 -180 2.90424 13.9396 3.88993 -22.989 1.37021e-015 90 0 0 0 -85.2733 -1.52588e-005 -180 0 0 0 -120.152 3.082e-006 -2.25e-005 0 0 0 133.652 -9.9614e-006 5.86598e-006 0 0 0 1.75652 2.81084e-006 2.56144e-007 0 0 0 -17.8 -8.03594e-006 -3.41259e-006 0 0 0 -26.1943 -9.866e-007 -1.14459e-006 15.5776 -0.000396 -6.99998e-006 -9.54166e-015 4.65902e-018 -0 9.40361 1.03979 -6.51604 -5.81408 -20.0444 20.1782 2.77011 -0.005981 0.002195 2.27114 -18.4986 -0.509807 9.40406 1.0397 6.51626 -5.81533 20.0463 -20.1753 2.77011 -0.006031 -0.002048 2.27121 18.5003 0.513248 
0 0 0.240689 -0 -90 -0 0.000866 -28.7007 48.0221 90.0001 -0.000157657 86.843 0 0 0 -90.0005 0.000454278 -81.088 -6.39665 -3.85967 -1.00307 142.273 -5.4493 -4.58846 10.3821 -0.008041 5.09998e-005 -9.78473 -0.210728 2.54945 10.3832 -0.008117 0.000131 4.84107 0.805772 3.05302 10.3869 -0.007484 0.000129 29.4811 -0.561387 8.83433 10.3867 -0.007453 -0.000471002 27.0671 1.22537 4.21108 7e-006 -1.1e-005 -8.75617 -93.0553 8.48825 -175.495 19.7638 -1e-006 8.88178e-016 -80.4663 8.90309e-005 0.00108909 18.6534 7.10543e-015 5.32907e-015 -28.0056 2.28175 5.58434 5.09144 13.9567 -7.98072e-007 103.592 1.68466 -4.73644 4.288 3e-006 -3.01981e-014 46.8908 0.000313394 0.000158744 3.85799 0 1.77636e-015 -5.35621 0.000607847 0.000702109 -1.3e-005 7e-006 8.75617 -123.414 11.2758 179.478 19.7638 -2e-006 3.10863e-015 -75.6617 0.000428854 0.00340585 18.6534 -3.55271e-014 -2e-006 -15.4082 -7.9515 -0.655035 5.09144 13.9567 -3.17375e-007 103.949 -1.02982 4.78057 4.288 -1e-006 -1.77636e-015 51.7608 0.000748109 0.000259663 3.85799 8.88179e-015 -1.77636e-015 -43.1488 0.00138835 0.00306145 9.03768 -0.006275 1.41717 2.54464 -0.109643 -2.48291 8.04383 -0.006286 0.000101999 1.04592 -0.115873 -6.04661 8.04378 -0.006401 -2.10063e-005 0.383437 0.160245 -3.41406 8.04404 -0.008224 0.000128002 1.73059 -0.507489 -4.12457 10.6688 1.06807 -9.11386e-005 -10.7394 0.654412 0.133161 -3.41011 -4.85143 -9.00126 -169.206 -84.7536 124.708 19.0492 1e-006 -3e-006 87.8077 -6.84597 -107.035 10.3706 -1e-006 1e-006 -53.8156 0.00146938 0.00445518 22.8631 3.55271e-015 -3.55271e-015 -21.0573 9.31376 0.657522 6.48256 0.103652 0.504496 -85.4001 1.66285 -15.4089 3.66844 1e-006 -6.54143e-013 38.4785 0.00106213 0.000572768 -3.45172 -4.64569 9.09336 -169.419 86.0822 -117.213 19.0492 -3.19744e-014 3e-006 90.2605 -36.9303 104.861 10.3706 -2e-006 -5.9508e-014 -94.4913 -3.56596e-005 0.00116521 22.8631 -5e-006 -9.99999e-007 26.497 -11.3385 -2.66792 6.48255 0.103653 -0.504496 43.5619 13.1014 -8.35892 3.66844 -3e-006 -1.39444e-013 27.1959 9.83959e-006 -5.73542e-006 7.5272 -0.006637 -0.000310001 11.0385 2.27628 11.8653 8.47671 -0.006446 0.000283999 14.1229 -1.22995 0.860783 8.41604 7.10543e-015 -3.55271e-015 -91.9813 4.84924 -2.30673 -3e-006 5e-006 -3e-006 -23.1098 1.37701e-015 90 8.45849e-008 -0.500004 4.29731e-006 180 90 -90 0 0 0 -112.949 7.01671e-015 -180 2.92219 13.9345 3.88993 -22.989 1.37021e-015 90 0 0 0 -85.2108 -1.52588e-005 -180 0 0 0 -120.014 2.53087e-006 -2.21208e-005 0 0 0 133.565 -1.11594e-005 5.63799e-006 0 0 0 1.6815 2.50367e-006 2.15897e-007 0 0 0 -17.9501 -7.20081e-006 -3.03814e-006 0 0 0 -26.1943 -8.34827e-007 -9.61153e-007 15.5776 -0.000396 -6.99998e-006 -3.18055e-015 2.01891e-017 -1.55301e-018 9.40361 1.03979 -6.51604 -5.81408 -20.0444 20.1782 2.77011 -0.005981 0.002195 2.27114 -18.4986 -0.509807 9.40406 1.0397 6.51626 -5.81533 20.0463 -20.1753 2.77011 -0.006031 -0.002048 2.27121 18.5003 0.513248 
0 0 0.240689 -0 -90 -0 0.000866 -28.7007 48.4605 90.0002 -0.000157652 88.0161 0 0 0 -90.0006 0.000491923 -82.3614 -6.41725 -3.85967 -0.86059 140.799 -4.78543 -5.95103 10.3821 -0.008041 5.09998e-005 -10.957 -0.269291 0.424541 10.3832 -0.008117 0.000131 8.13449 1.12167 1.49194 10.3869 -0.007484 0.000129 31.8275 -0.909587 8.85526 10.3867 -0.007453 -0.000471003 28.9134 -0.463909 4.6719 7e-006 -1.1e-005 -8.75617 -96.8196 6.96499 -175.421 19.7638 -1e-006 1.77636e-015 -86.6013 3.1465e-005 0.00108883 18.6534 0 -5.32907e-015 -26.255 1.91344 5.53384 5.09144 13.9567 -6.04365e-007 96.218 2.22 -4.52886 4.288 3e-006 -2.13163e-014 37.0605 0.000281851 0.000209759 3.85799 -2.13163e-014 3.55271e-015 -8.00179 0.000574692 0.00072938 -1.3e-005 7e-006 8.75617 -121.863 10.2936 178.696 19.7638 -2e-006 -8.88179e-015 -74.3306 0.000469657 0.00340563 18.6534 -3.55271e-014 -2e-006 -16.754 -7.72588 -0.74514 5.09144 13.9567 -3.64525e-007 105.335 -1.10602 4.69395 4.288 -1e-006 3.55271e-015 52.0017 0.000748672 0.000256441 3.85799 -7.99361e-015 0 -41.435 0.00147961 0.00301893 9.06698 -0.006275 1.21586 2.54499 -0.0983644 -2.22922 8.04383 -0.006286 0.000101999 0.330621 -0.034452 -5.08752 8.04378 -0.006401 -2.10016e-005 0.0780674 0.140072 -2.87596 8.04404 -0.008224 0.000128002 1.24725 -0.40907 -3.47101 10.6688 1.06807 -9.11104e-005 -10.7391 0.536194 0.109111 -3.41389 -4.83282 -9.00982 -169.215 -84.8739 122.529 19.0492 1e-006 -3e-006 86.5961 -5.14049 -106.095 10.3706 -1e-006 1e-006 -51.4526 0.00158038 0.00444787 22.8631 -3.55271e-015 -9.32588e-015 -23.8507 10.2252 0.853989 6.48256 0.103652 0.504496 -84.6001 1.44212 -15.4318 3.66844 1e-006 -6.20393e-013 37.6624 0.00105493 0.000586902 -3.44788 -4.66446 9.08516 -169.394 85.9617 -123.513 19.0492 -5.32907e-015 3e-006 91.6043 -33.4883 106.447 10.3706 -2e-006 -8.03802e-014 -89.1945 1.7307e-005 0.00116574 22.8631 -5e-006 -9.99999e-007 27.5035 -11.0932 -2.52145 6.48255 0.103653 -0.504496 37.9849 13.8361 -7.05896 3.66844 -3e-006 -1.29674e-013 27.9731 9.37465e-006 -5.87428e-006 7.5272 -0.006637 -0.000310001 11.6438 1.97299 9.74927 8.47671 -0.006446 0.000283999 13.5703 -1.02056 0.703861 8.41604 -1.42109e-014 -1.33227e-015 -91.9199 3.86657 -1.86289 -3e-006 5e-006 -3e-006 -23.1098 1.37701e-015 90 8.32495e-008 -0.500004 4.29936e-006 180 90 -90 0 0 0 -112.649 7.01671e-015 -180 2.94013 13.9294 3.88993 -22.989 1.37021e-015 90 0 0 0 -85.1482 -7.01671e-015 -180 0 0 0 -119.877 1.98974e-006 -2.17346e-005 0 0 0 133.477 -1.24687e-005 5.41773e-006 0 0 0 1.60648 2.13586e-006 1.74906e-007 0 0 0 -18.1001 -6.19427e-006 -2.6011e-006 0 0 0 -26.1943 -6.78706e-007 -7.78544e-007 15.5776 -0.000396 -6.99999e-006 0 1.3977e-017 -0 9.40361 1.03979 -6.51604 -5.81408 -20.0444 20.1782 2.77011 -0.005981 0.002195 2.27114 -18.4986 -0.509807 9.40406 1.0397 6.51626 -5.81533 20.0463 -20.1753 2.77011 -0.006031 -0.002048 2.27121 18.5003 0.513248 
